<svg width="373" height="363" viewBox="0 0 373 363" fill="none" xmlns="http://www.w3.org/2000/svg">
<path d="M372.117 2.10296C372.117 4.20937 375.126 3.85502 215.672 4.50466C36.1569 5.21336 47.3471 4.24874 44.9478 8.99309C43.2565 12.3397 43.8465 10.9617 42.6665 51.7906C39.1659 172.703 37.0616 158.213 44.9478 144.827C50.2184 135.929 47.8584 158.942 50.3954 83.0521C51.7524 42.361 52.362 22.3403 52.6373 19.5842C52.9717 15.8832 54.604 13.954 58.2029 13.954C64.1028 13.954 362.146 15.2729 370.898 15.7651C374.025 15.9226 372.413 17.8518 371.212 17.9896C370.151 18.9739 59.6976 15.7651 55.784 16.9856C54.781 17.3006 51.5754 139.669 51.5754 139.708C72.4217 130.574 75.588 131.658 75.588 129.709C75.588 124.984 76.414 125.259 77.5546 114.767C78.3413 107.444 77.7709 107.463 80.6029 107.089C90.2001 105.848 91.3801 107.877 106.582 107.089C108.273 107.089 110.516 106.873 110.516 108.191C111.931 135.496 106.031 127.543 114.901 130.771C116.165 131.349 117.205 132.322 117.868 133.542C118.532 134.764 118.781 136.168 118.579 137.543C118.382 138.646 137.281 135.26 137.4 135.24C140.782 134.689 140.132 137.977 141.628 118.821C142.237 110.77 141.628 110.179 143.082 109.785C143.71 109.554 144.384 109.473 145.049 109.549C147.311 110.042 149.435 109.175 151.618 109.117C154.686 108.998 174.667 109.629 174.706 109.629C183.005 109.629 180.508 105.692 180.764 127.996C181.118 140.398 180.272 145.516 178.404 159.06C178.246 160.084 177.971 160.91 176.673 160.753C176.555 160.753 176.417 160.93 176.279 160.969C172.346 162.013 143.456 159.69 141.766 159.001C138.166 157.406 137.026 162.938 139.406 145.22C139.406 144.847 139.406 144.454 139.406 144.079C130.752 146.048 122.394 148.824 113.426 149.985C118.54 154.867 121.863 156.776 120.368 161.58C120.085 162.58 119.508 163.472 118.711 164.139C117.916 164.805 116.937 165.217 115.904 165.321C116.671 175.045 115.55 169.947 115.904 175.695C116.238 182.014 115.904 186.857 110.004 187.29C105.363 187.644 103.907 184.81 103.337 180.735C103.101 178.924 104.084 178.766 101.764 179.829C94.2513 183.214 99.66 180.577 93.1304 190.243C92.3362 191.633 91.6777 193.097 91.1637 194.613C101.666 195.538 106.483 193.669 110.477 196.581C111.184 197.094 107.939 217.312 105.264 232.351C102.669 247.038 103.298 239.754 100.466 252.589C99.974 254.794 100.092 255.365 82.4909 251.605C81.5862 251.408 80.7602 250.817 79.8752 250.62C75.47 249.675 68.7441 248.652 64.9681 247.431C61.5462 246.387 64.0242 245.463 69.4324 222.292C69.7274 220.992 68.9211 222.292 66.1481 224.26C57.9669 230.166 55.5283 230.934 51.9687 236.072C46.0688 244.714 48.8024 227.902 45.0461 333.754C44.0432 361.827 45.0461 362.732 42.5682 362.673C40.8572 362.673 40.9162 367.614 44.4365 263.475C45.1641 241.82 46.4031 243.947 39.6182 259.025C34.564 270.227 36.4716 254.459 33.7183 336.53C32.912 361.925 33.4627 361.551 31.85 361.767C29.4901 362.083 30.0407 361.767 30.67 341.334C32.912 268.299 32.9907 273.357 32.5187 273.201C11.7903 316.923 20.3649 301.371 8.62406 325.348C6.63461 328.669 4.83552 332.1 3.23548 335.625C3.09467 335.969 2.82292 336.244 2.4799 336.387C2.13688 336.532 1.75083 336.533 1.40651 336.392C1.06229 336.251 0.788106 335.98 0.64427 335.636C0.500434 335.292 0.49874 334.906 0.639566 334.561C3.94347 326.057 6.67709 323.537 13.344 308.162C21.3285 289.776 15.3106 301.588 30.4734 270.759C39.8346 251.702 43.2762 242.352 47.8388 235.934C50.9657 231.525 54.4073 229.044 61.6052 223.571C77.7906 211.11 76.0206 214.909 89.4724 190.794C90.2787 189.357 91.2621 188.038 92.029 186.582C97.0636 177.112 93.091 181.561 101.627 176.423C102.217 176.069 101.744 173.371 103.356 173.254C103.496 173.231 103.638 173.239 103.774 173.274C103.911 173.309 104.038 173.373 104.149 173.458C104.259 173.545 104.351 173.654 104.418 173.778C104.484 173.902 104.526 174.038 104.536 174.18C104.536 174.691 105.009 175.164 105.126 175.675C105.501 178.19 106.162 180.653 107.093 183.018C107.762 184.199 112.836 184.789 112.993 180.793C113.21 173.274 114.566 177.23 110.023 176.069C101.39 173.884 103.356 168.785 101.96 163.509C99.2069 165.616 95.7066 165.477 92.914 167.604C94.4873 170.97 96.3556 174.494 94.743 175.006C93.1304 175.517 93.1107 173.549 90.9867 169.553C89.6691 167.093 85.8145 161.678 87.3878 161.245C88.9611 160.813 89.6887 162.604 91.557 164.927C101.528 161.501 98.1846 162.387 101.882 160.006C101.329 158.717 100.448 157.596 99.3254 156.757C98.5976 156.068 99.8762 155.182 100.427 155.34C107.133 157.308 110.26 163.489 116.16 161.717C117.222 161.403 118.677 158.628 117.123 157.269C116.573 156.776 111.44 152.091 111.341 151.835C110.633 149.867 109.591 150.989 102.295 152.426C100.624 152.761 98.9125 152.898 97.2406 153.194C89.7281 154.533 92.678 157.643 80.4259 165.005C72.048 170.143 72.9527 170.439 70.9467 173.51C68.9408 176.581 68.2131 178.156 69.1374 180.125C73.2477 188.944 73.287 190.459 72.4807 197.291C72.1857 199.85 72.048 201.444 70.5141 201.228C67.9574 200.756 71.9497 194.613 69.6094 188.097C64.1028 212.567 58.3209 207.783 59.9729 204.968C63.2768 199.554 63.3162 200.243 64.8305 194.889C66.3448 189.535 66.3055 190.459 66.3448 181.739C65.8027 180.849 65.516 179.828 65.516 178.786C65.516 177.744 65.8027 176.722 66.3448 175.833C74.3097 160.202 75.6863 168.194 90.5737 152.603C95.2543 147.701 92.3634 142.76 87.9974 142.308C89.9641 145.438 91.3997 146.835 88.4891 150.753C86.0898 154.001 79.7769 154.513 79.1673 150.418C79.0689 149.748 79.5606 147.76 80.8979 148.45C82.2352 149.138 81.4092 151.028 83.4939 150.418C87.8008 149.296 88.3318 146.894 86.4438 144.512C84.5558 142.13 84.6345 142.544 81.5665 143.922C65.8335 151.402 63.5718 154.69 60.5432 158.096C49.0384 171.089 46.6391 166.442 39.5002 181.719C39.3429 182.033 39.2446 182.998 37.5336 182.861C36.4913 182.762 38.2416 178.589 38.5759 177.841C44.4758 164.612 55.2333 163.372 47.1701 164.75C44.466 164.996 41.7959 165.53 39.2052 166.344C37.2386 166.915 34.7213 180.813 30.6307 192.369C29.4914 195.658 28.1784 198.885 26.6974 202.035C17.1396 220.54 13.167 224.91 5.79211 234.989C3.82547 237.627 3.41248 239.32 1.85884 238.926C-2.64471 237.824 5.33978 234.261 21.9972 204.555C28.3494 193.235 29.2344 185.833 34.1313 170.301C34.9966 167.525 35.9406 166.541 34.6426 166.522C32.971 166.522 31.083 167.269 29.7261 164.553C27.7594 160.458 28.6247 156.521 34.2493 154.71C37.6123 153.666 36.3929 159.197 37.6319 119.078C37.6319 119.078 40.9752 13.4421 41.4275 10.942C42.9812 2.37856 38.3989 1.66991 126.19 1.66991C152.247 1.66991 186.624 0.961208 231.464 1.07932C376.188 1.63053 372.137 -0.357759 372.117 2.10296ZM175.788 158.096C177.892 143.449 178.049 145.929 178.049 112.818C169.908 113.605 160.861 111.518 144.873 113.073C144.342 120.102 143.771 127.327 143.201 134.728C153.604 133.114 156.633 133.685 157.951 134.728C159.269 135.771 158.659 136.992 157.676 137.878C155.02 140.279 146.682 141.973 142.65 143.331C141.353 143.764 141.156 154.67 141.156 156.068C157.164 156.737 143.575 156.993 175.788 158.096ZM155.001 136.441C155.001 135.595 152.247 136.145 151.067 136.283C140.919 137.406 142.159 137.346 142.001 140.221C151.776 138.252 154.903 137.189 155.001 136.362V136.441ZM114.213 138.901C116.18 138.587 115.964 133.763 112.718 133.252C108.234 132.563 101.547 133.449 96.1 133.37C91.4784 133.37 84.5952 131.067 80.8979 132.208C58.1636 139.197 47.4651 141.657 44.3578 152.8C54.5647 149.729 68.8621 149.021 79.4032 142.031C82.1878 140.348 85.3735 139.443 88.6268 139.413C96.8473 142.406 89.3938 142.741 114.213 138.901ZM105.461 167.722C105.658 173.805 114.153 174.907 113.604 170.754C113.347 168.943 113.328 167.093 113.21 165.124C109.277 165.281 107.034 162.427 103.967 160.616C104.845 162.888 105.35 165.288 105.461 167.722ZM107.073 129.098C107.33 120.712 108.175 117.818 108.175 110.12C83.9658 110.12 102.865 109.924 80.8782 109.51C79.9932 116.282 79.1082 122.897 78.2036 129.709C88.6071 127.425 89.8461 130.633 98.4206 130.436C101.056 130.436 103.691 130.083 106.287 129.886C106.393 129.898 106.501 129.886 106.603 129.851C106.704 129.816 106.795 129.759 106.871 129.682C106.947 129.607 107.005 129.515 107.04 129.414C107.075 129.313 107.087 129.204 107.073 129.098ZM97.8306 250.601C107.428 208.886 100.387 239.025 108.313 198.353C104.773 197.626 97.9879 197.959 90.3967 197.212C87.7221 196.956 83.4545 211.858 72.9134 219.24C71.7727 220.027 73.6213 218.099 67.0135 243.828C66.8758 244.379 66.5415 245.442 68.1148 245.797C85.6768 249.104 97.339 252.706 97.8306 250.601Z" fill="#000001"/>
</svg>
