<svg width="328" height="354" viewBox="0 0 328 354" fill="none" xmlns="http://www.w3.org/2000/svg">
<path d="M327.386 2.82825C326.895 3.98973 329.176 30.251 325.715 72.7335C323.513 99.9401 326.639 125.02 326.757 158.722C326.757 183.291 324.456 217.092 324.79 241.267C325.145 279.024 326.422 310.699 327.072 330.739C327.544 345.307 315.508 353.91 298.576 353.634C260.777 353.024 191.492 351.665 129.189 350.229C107.143 349.757 91.1739 345.976 72.5897 345.563C56.9936 345.209 38.0355 348.221 27.0617 347.985L0.0401611 347.375C0.0401611 347.375 9.87333 48.9724 9.87333 47.9881C10.8561 38.6836 11.0534 29.3126 10.4633 19.9748L11.132 4.56063C11.132 4.56063 9.93234 1.64709 17.7989 1.13525C25.6654 0.623413 107.202 0.623413 107.202 0.623413L327.386 2.82825Z" fill="white"/>
</svg>
